<svg width="481" height="71" viewBox="0 0 481 71" fill="none" xmlns="http://www.w3.org/2000/svg">
<path d="M4.75714 20.287H45.5304V29.2811H6.85577L23.1451 45.5704L16.9491 51.7664L2.25878 37.076C1.65918 36.4764 1.25944 35.577 1.25944 34.6776V23.385C1.25944 22.5855 1.65918 21.786 2.25878 21.2864C2.85839 20.6868 3.7578 20.287 4.75714 20.287ZM0.759766 70.7539V61.7598H39.3345L23.1451 45.5704L29.341 39.3745L44.0314 54.0649C44.631 54.6645 45.0307 55.5639 45.0307 56.4633V67.656C45.0307 68.4554 44.631 69.2549 44.0314 69.7546C43.4318 70.3542 42.5324 70.7539 41.533 70.7539H0.759766Z" fill="black"/>
<path d="M96.2784 70.7539H65.7984C64.2993 70.7539 62.9003 70.1543 61.9009 69.155L54.106 61.3601C53.0067 60.2608 52.5071 58.8617 52.5071 57.3627V33.6782C52.5071 32.1792 53.0067 30.7801 54.106 29.6809L61.9009 21.886C62.9003 20.8866 64.2993 20.287 65.7984 20.287H87.684C88.4835 20.287 89.183 20.6868 89.6827 21.1864L97.4776 28.9813C98.1771 29.6809 98.5769 30.5803 98.5769 31.4797C98.5769 32.3791 98.1771 33.2785 97.4776 33.978L73.993 57.4627L67.6971 51.2667L89.6827 29.2811H63.8996C62.6005 29.2811 61.6011 30.2805 61.6011 31.4797V59.5613C61.6011 60.7605 62.6005 61.7598 63.8996 61.7598H96.2784V70.7539Z" fill="black"/>
<path d="M114.691 70.7539H105.597V20.287H114.691V70.7539ZM148.869 70.7539H139.775V29.2811L123.286 45.7703L116.99 39.5744L135.178 21.3863C135.877 20.6868 136.777 20.287 137.676 20.287C138.576 20.287 139.475 20.6868 140.175 21.3863L147.969 29.1812C148.469 29.6809 148.869 30.3804 148.869 31.1799V70.7539ZM183.046 70.7539H173.952V29.2811L157.363 45.7703L151.067 39.5744L169.355 21.3863C170.055 20.6868 170.954 20.287 171.854 20.287C172.753 20.287 173.653 20.6868 174.352 21.3863L182.147 29.1812C182.647 29.6809 183.046 30.3804 183.046 31.1799V70.7539Z" fill="black"/>
<path d="M235.835 70.7539H205.355C203.856 70.7539 202.457 70.1543 201.458 69.155L193.663 61.3601C192.564 60.2608 192.064 58.8617 192.064 57.3627V33.6782C192.064 32.1792 192.564 30.7801 193.663 29.6809L201.458 21.886C202.457 20.8866 203.856 20.287 205.355 20.287H227.241C228.04 20.287 228.74 20.6868 229.24 21.1864L237.034 28.9813C237.734 29.6809 238.134 30.5803 238.134 31.4797C238.134 32.3791 237.734 33.2785 237.034 33.978L213.55 57.4627L207.254 51.2667L229.24 29.2811H203.457C202.157 29.2811 201.158 30.2805 201.158 31.4797V59.5613C201.158 60.7605 202.157 61.7598 203.457 61.7598H235.835V70.7539Z" fill="black"/>
<path d="M254.248 70.7539H245.154V20.287H254.248V70.7539ZM292.623 70.7539H283.529V29.2811L262.843 49.9676L256.547 43.7716L278.932 21.3863C279.632 20.6868 280.531 20.287 281.43 20.287C282.33 20.287 283.229 20.6868 283.929 21.3863L291.724 29.1812C292.223 29.6809 292.623 30.3804 292.623 31.1799V70.7539Z" fill="black"/>
<path d="M336.337 70.7539H314.951C313.452 70.7539 312.053 70.1543 311.054 69.155L303.259 61.3601C302.16 60.2608 301.66 58.8617 301.66 57.3627V33.6782C301.66 32.1792 302.16 30.7801 303.259 29.6809L311.054 21.886C312.053 20.8866 313.452 20.287 314.951 20.287H336.337C337.836 20.287 339.235 20.8866 340.235 21.886L348.03 29.6809C349.129 30.7801 349.629 32.1792 349.629 33.6782V57.3627C349.629 58.8617 349.129 60.2608 348.03 61.3601L340.235 69.155C339.235 70.1543 337.836 70.7539 336.337 70.7539ZM313.053 61.7598H338.236C339.535 61.7598 340.535 60.7605 340.535 59.5613V31.4797C340.535 30.2805 339.535 29.2811 338.236 29.2811H313.053C311.753 29.2811 310.754 30.2805 310.754 31.4797V59.5613C310.754 60.7605 311.753 61.7598 313.053 61.7598Z" fill="black"/>
<path d="M396.229 33.5783V20.287H405.323V33.1786C405.323 35.577 404.424 37.8755 402.725 39.5744L372.645 69.5547C371.845 70.3542 370.946 70.7539 369.847 70.7539C368.847 70.7539 367.848 70.3542 367.048 69.5547L359.553 62.0596C359.054 61.56 358.654 60.7605 358.654 59.8611V20.287H367.748V62.0596L396.229 33.5783Z" fill="black"/>
<path d="M409.82 70.7539H399.926V60.9604H409.82V70.7539Z" fill="black"/>
<path d="M462.675 70.7539H453.581V31.4797C453.581 30.2805 452.581 29.2811 451.282 29.2811H417.604V20.287H450.183C451.682 20.287 452.282 20.8866 453.281 21.886L461.076 29.6809C462.175 30.7801 462.675 32.1792 462.675 33.6782V70.7539ZM443.387 70.7539H426.199C425.399 70.7539 424.7 70.3542 424.2 69.8545L416.405 62.0596C415.006 60.6606 415.006 58.462 416.405 57.0629L439.89 33.5783L446.186 39.7742L424.2 61.7598H453.581L445.486 69.8545C444.986 70.3542 444.187 70.7539 443.387 70.7539Z" fill="black"/>
<path d="M480.06 0.799805V16.4895L472.165 8.49476C471.366 7.79521 470.966 6.59601 470.966 5.49672V0.799805H480.06ZM480.76 70.7539H471.666V20.287L479.561 28.1818C480.36 28.9813 480.76 30.0806 480.76 31.1799V70.7539Z" fill="black"/>
</svg>
